<!DOCTYPE svg PUBLIC "-//W3C//DTD SVG 20010904//EN" "http://www.w3.org/TR/2001/REC-SVG-20010904/DTD/svg10.dtd">
<svg version="1.0" xmlns="http://www.w3.org/2000/svg" width="200px" height="200px" viewBox="0 0 2000 2000" preserveAspectRatio="xMidYMid meet">
<g id="layer101" fill="#314821" stroke="none">
 <path d="M663 1349 c6 -50 11 -58 87 -134 l80 -80 0 -120 0 -119 -28 27 c-20 19 -39 27 -65 27 -20 0 -37 -3 -37 -7 0 -4 26 -33 57 -65 l57 -58 -49 -51 c-28 -28 -65 -57 -82 -64 -28 -12 -33 -19 -33 -49 0 -26 6 -38 21 -46 29 -16 66 -4 74 23 4 12 32 48 63 80 l56 57 63 -62 63 -62 0 44 c0 30 -6 50 -20 65 l-19 20 99 0 99 0 -20 -21 c-13 -14 -19 -35 -19 -64 l0 -44 63 62 63 62 57 -58 c31 -32 57 -63 57 -70 0 -19 47 -44 70 -37 50 16 48 78 -3 100 -18 8 -54 36 -82 64 l-49 51 64 65 64 65 -44 0 c-34 0 -50 -6 -72 -27 l-28 -27 0 120 0 119 85 85 c84 83 85 85 85 133 l0 49 -47 -7 c-42 -6 -57 -15 -119 -76 l-70 -70 -68 46 c-37 25 -75 45 -84 45 -9 -1 -46 -20 -82 -44 l-65 -44 -70 68 c-64 62 -75 69 -124 75 l-54 7 6 -53z"/>
 <path d="M1780 1219 c0 -6 9 -18 21 -28 l21 -16 -20 -80 c-36 -145 -35 -135 -7 -135 21 0 26 6 31 40 8 49 24 63 24 21 0 -16 3 -36 6 -45 7 -20 44 -21 44 -2 0 25 -42 221 -51 239 -11 19 -69 24 -69 6z"/>
 <path d="M1430 1040 l0 -130 43 0 c65 0 82 17 82 83 0 59 -22 97 -57 97 -14 0 -18 8 -18 40 0 36 -2 40 -25 40 l-25 0 0 -130z m76 -14 c8 -33 2 -69 -13 -74 -9 -2 -13 11 -13 47 0 53 15 69 26 27z"/>
 <path d="M1580 1030 c0 -133 1 -140 20 -140 19 0 20 7 20 140 0 133 -1 140 -20 140 -19 0 -20 -7 -20 -140z"/>
 <path d="M1651 1157 c-19 -19 -13 -66 14 -92 13 -14 29 -25 35 -25 5 0 10 -11 10 -25 0 -30 -16 -33 -25 -4 -8 24 -38 22 -43 -3 -2 -9 7 -27 18 -38 17 -17 29 -21 53 -16 17 4 35 12 39 19 4 6 8 53 8 104 l0 91 -49 0 c-26 1 -53 -4 -60 -11z m59 -53 c0 -14 -4 -23 -10 -19 -5 3 -10 15 -10 26 0 10 5 19 10 19 6 0 10 -12 10 -26z"/>
 <path d="M100 1030 l0 -130 40 0 c56 0 80 26 80 88 0 57 -21 92 -56 92 -21 0 -24 4 -24 40 0 33 -3 40 -20 40 -19 0 -20 -7 -20 -130z m68 -43 c-5 -66 -28 -59 -28 8 0 51 2 56 15 45 11 -9 15 -26 13 -53z"/>
 <path d="M234 1146 c-3 -8 -4 -29 -2 -47 2 -25 11 -39 35 -54 33 -21 44 -55 18 -55 -8 0 -15 7 -15 15 0 8 -9 15 -20 15 -14 0 -20 -7 -20 -24 0 -33 22 -48 67 -44 l38 3 3 101 3 101 -51 2 c-35 0 -52 -4 -56 -13z m66 -53 c0 -25 -1 -26 -16 -11 -9 9 -13 21 -10 27 13 20 26 11 26 -16z"/>
 <path d="M370 1055 l0 -105 25 0 25 0 0 105 0 105 -25 0 -25 0 0 -105z"/>
 <path d="M450 1056 l0 -104 52 0 c30 -1 56 4 60 11 4 7 8 54 8 105 0 92 0 92 -25 92 -25 0 -25 -1 -25 -85 0 -50 -4 -85 -10 -85 -6 0 -10 35 -10 85 0 84 0 85 -25 85 l-25 0 0 -104z"/>
 <path d="M615 1150 c-12 -19 -25 -195 -15 -198 6 -2 10 -15 10 -28 0 -17 6 -24 20 -24 15 0 20 7 20 25 0 16 6 25 15 25 8 0 15 9 15 20 0 11 -7 20 -15 20 -12 0 -15 14 -15 65 0 59 2 65 21 65 14 0 19 5 17 18 -4 20 -62 30 -73 12z"/>
 <path d="M374 915 c-8 -21 2 -45 19 -45 21 0 38 25 31 44 -8 20 -43 21 -50 1z"/>
 </g>
<g id="layer102" fill="#6d8e44" stroke="none">
 <path d="M663 1349 c6 -50 11 -58 87 -134 l80 -80 0 -120 0 -119 -28 27 c-20 19 -39 27 -65 27 -20 0 -37 -3 -37 -7 0 -4 26 -33 57 -65 l57 -58 -49 -51 c-28 -28 -65 -57 -82 -64 -27 -11 -33 -20 -33 -44 0 -34 22 -61 50 -61 21 0 50 25 50 43 0 6 26 37 57 69 l57 58 63 -62 63 -62 0 44 c0 30 -6 50 -20 65 l-19 20 99 0 99 0 -20 -21 c-13 -14 -19 -35 -19 -64 l0 -44 63 62 63 62 57 -58 c31 -32 57 -63 57 -70 0 -19 47 -44 70 -37 50 16 48 78 -3 100 -18 8 -54 36 -82 64 l-49 51 64 65 64 65 -44 0 c-34 0 -50 -6 -72 -27 l-28 -27 0 120 0 119 85 85 c84 83 85 85 85 133 l0 49 -47 -7 c-42 -6 -57 -15 -119 -76 l-70 -70 -68 46 c-37 25 -75 45 -84 45 -9 -1 -46 -20 -82 -44 l-65 -44 -70 68 c-64 62 -75 69 -124 75 l-54 7 6 -53z m422 -201 c6 0 19 3 29 8 16 6 18 4 12 -12 -9 -20 -9 -20 0 -76 5 -30 3 -38 -9 -38 -10 0 -17 11 -19 28 l-3 27 -18 -33 c-18 -32 -18 -34 3 -68 27 -42 21 -81 -14 -90 -40 -10 -66 11 -66 54 0 20 4 43 9 51 6 9 2 25 -10 45 -10 17 -19 43 -19 58 0 34 36 61 70 53 14 -3 30 -6 35 -7z"/>
 <path d="M1020 1115 c-12 -15 -6 -65 8 -65 9 0 42 54 42 69 0 16 -36 13 -50 -4z"/>
 <path d="M1035 967 c-8 -30 6 -54 24 -43 15 10 14 28 -3 52 -14 18 -15 18 -21 -9z"/>
 </g>
<g id="layer103" fill="#c0bd81" stroke="none">
 <path d="M970 1295 c-36 -24 -81 -65 -100 -91 l-35 -47 -3 -173 -3 -173 38 -6 c21 -3 48 -10 60 -15 56 -23 150 -23 247 0 l96 22 0 165 c0 174 -1 181 -54 247 -32 42 -139 116 -165 116 -9 -1 -45 -21 -81 -45z m154 -154 c-7 -17 -7 -18 2 -73 5 -30 3 -38 -9 -38 -10 0 -17 11 -19 28 l-3 27 -18 -32 c-16 -31 -16 -33 3 -65 27 -45 26 -76 -5 -90 -56 -25 -102 31 -72 89 14 26 14 31 -4 53 -23 31 -24 77 -3 101 22 25 139 25 128 0z"/>
 <path d="M1027 1123 c-9 -8 -9 -58 0 -66 9 -9 45 52 38 64 -7 10 -29 12 -38 2z"/>
 <path d="M1035 967 c-8 -30 6 -54 24 -43 15 10 14 28 -3 52 -14 18 -15 18 -21 -9z"/>
 </g>

</svg>